<svg width="40" height="48" xmlns="http://www.w3.org/2000/svg" xmlns:xlink="http://www.w3.org/1999/xlink" overflow="hidden"><defs><clipPath id="clip0"><rect x="394" y="768" width="40" height="48"/></clipPath></defs><g clip-path="url(#clip0)" transform="translate(-394 -768)"><path d="M8.33333 20.5417 8.33333 25.4167C8.33333 27.7083 13.5417 30 20 30 26.4583 30 31.6667 27.7083 31.6667 25.4167L31.6667 20.5417 20 24.6667 8.33333 20.5417Z" fill="#2E75B6" transform="matrix(1 0 0 1.2 394 768)"/><path d="M20 22.875 38.1667 16.5 20 10 1.83333 16.5 4.16667 17.3333 4.16667 25C4.16667 25.4583 4.54167 25.8333 5 25.8333 5.45833 25.8333 5.83333 25.4583 5.83333 25L5.83333 17.9167 20 22.875Z" fill="#2E75B6" transform="matrix(1 0 0 1.2 394 768)"/></g></svg>